<?xml version="1.0" encoding="utf-8"?>
<!-- Generator: Adobe Illustrator 15.0.0, SVG Export Plug-In . SVG Version: 6.00 Build 0)  -->
<!DOCTYPE svg PUBLIC "-//W3C//DTD SVG 1.1//EN" "http://www.w3.org/Graphics/SVG/1.1/DTD/svg11.dtd">
<svg version="1.1" id="Layer_1" xmlns="http://www.w3.org/2000/svg" xmlns:xlink="http://www.w3.org/1999/xlink" x="0px" y="0px"
	 width="151.628px" height="33.414px" viewBox="29.902 36.581 151.628 33.414"
	 enable-background="new 29.902 36.581 151.628 33.414" xml:space="preserve">
<rect fill="none" width="212.658" height="101.572"/>
<rect fill="none" width="212.658" height="101.572"/>
<g>
	<path fill="#010101" d="M58.179,49.91c-0.417,0.37-0.833,0.647-0.833,1.249c0,0.603,0.509,0.787,0.972,1.019
		c1.897,0.74,5.183,3.193,5.183,7.081c0,4.628-3.101,10.32-12.403,10.32c-1.574,0-3.008-0.046-4.396-0.139
		c-1.389-0.047-2.777-0.093-4.212-0.093c-1.573,0-3.193,0.046-4.767,0.093c-1.574,0.093-3.147,0.139-4.767,0.139
		c-1.435,0-3.054-0.833-3.054-2.453c0-2.869,3.008,0.047,3.286-7.636l0.509-13.329c0.278-6.988-3.703-3.795-3.703-6.988
		c0-1.759,1.898-2.592,3.333-2.592c1.712,0,3.425,0.093,5.137,0.14c1.712,0.092,3.425,0.185,5.137,0.185
		c1.111,0,2.175-0.093,3.24-0.185c1.064-0.047,2.175-0.14,3.24-0.14c8.469,0,10.644,4.026,10.644,7.591
		C60.725,46.3,59.845,48.568,58.179,49.91z M44.712,47.874c0,1.805-0.093,2.684,1.342,2.684c2.776,0,3.424-1.943,3.424-4.488
		c0-2.083-0.694-4.675-3.239-4.675c-1.712,0-1.527,1.389-1.527,2.73V47.874z M44.712,59.166c0,5.368,0.879,5.508,2.314,5.508
		c2.638,0,3.563-1.806,3.563-4.212c0-2.823-0.833-5.322-4.073-5.322c-1.435,0-1.758,0.74-1.805,1.713V59.166z"/>
	<path fill="#010101" d="M67.81,55.325c0-4.536-2.87-1.99-2.87-4.813c0-3.656,10.83-4.674,11.246-4.674
		c1.759,0,1.805,0.462,1.99,2.036c0.046,0.555,0,1.619,0.787,1.619c1.111,0,1.805-3.655,5.785-3.655
		c3.101,0,5.137,2.313,5.137,5.368c0,3.101-2.638,5.554-5.692,5.554c-3.008,0-3.841-2.639-5.045-2.639
		c-1.296,0-1.064,3.102-1.064,3.935c0,1.388,0.139,3.332,0.371,5.091c0.277,2.036,3.795,0.786,3.795,3.563
		c0,2.915-4.073,3.146-9.164,3.146c-2.129,0-8.423,0.093-8.423-3.101c0-1.943,2.129-1.943,2.638-3.563
		c0.371-1.157,0.509-3.795,0.509-5.091V55.325z"/>
	<path fill="#010101" d="M114.37,58.287c0,8.145,2.777,3.702,2.777,6.201c0,2.638-3.609,5.507-6.988,5.507
		c-3.656,0-3.749-2.359-4.906-2.359c-0.555,0-1.157,0.602-2.175,1.156c-1.018,0.602-2.406,1.203-4.535,1.203
		c-3.841,0-7.683-2.036-7.683-6.617c0-3.286,3.147-7.358,11.292-7.358c1.435,0,2.083,0.092,2.083-1.574
		c0-1.527-0.046-4.721-2.175-4.721c-2.777,0-3.055,4.999-7.173,4.999c-1.481,0-2.592-1.064-2.592-2.546
		c0-3.934,7.821-6.479,12.218-6.479c2.639,0,9.857,1.019,9.857,7.961V58.287z M100.486,62.359c0,1.203,0.648,2.499,1.99,2.499
		c1.759,0,1.897-1.897,1.897-3.286c0-1.018,0.046-2.175-1.25-2.175C101.551,59.397,100.486,60.879,100.486,62.359z"/>
	<path fill="#010101" d="M131.544,61.619c0,4.489,1.573,3.702,1.573,5.461c0,2.869-6.155,2.776-8.053,2.776
		c-1.851,0-6.571,0-6.571-2.776c0-2.222,2.129-0.231,2.268-4.767l0.186-6.942c0.092-3.425-2.73-2.314-2.73-4.767
		c0-2.453,10.645-4.767,11.569-4.767c1.019,0,1.666,0.879,1.666,1.805c0,0.277-0.046,0.555-0.046,0.833
		c0,0.556,0.23,1.203,0.926,1.203c0.74,0,1.156-0.972,2.082-1.943c0.926-0.926,2.314-1.897,4.952-1.897
		c9.58,0,7.96,9.395,8.423,16.429c0.231,3.656,2.129,2.823,2.129,4.813c0,0.833,0.186,2.776-8.516,2.776
		c-1.666,0-6.109,0.093-6.109-2.499c0-1.666,1.527-0.879,1.76-3.888c0.23-3.285,1.527-10.69-2.824-10.69
		c-2.961,0-2.684,3.193-2.684,5.276V61.619z"/>
	<path fill="#010101" d="M179.077,61.526c0,3.239,2.453,2.175,2.453,4.582c0,3.517-10.136,3.748-10.645,3.748
		c-2.361,0-0.695-2.545-2.222-2.545c-0.417,0-1.11,0.647-2.175,1.342c-1.064,0.648-2.5,1.342-4.536,1.342
		c-6.063,0-10.783-6.433-10.783-12.125c0-6.155,4.999-12.172,11.385-12.172c3.193,0,4.999,1.389,5.507,1.389
		c0.695,0,0.741-1.527,0.741-2.036c0-2.869-3.378-1.342-3.378-3.842c0-3.424,11.801-4.304,11.939-4.304
		c1.389,0,1.713,0.972,1.713,2.499V61.526z M166.165,50.743c-3.102,0-3.656,5.322-3.656,7.497c0,2.176,0.555,5.971,3.424,5.971
		c3.102,0,2.916-5.692,2.916-7.729C168.849,54.677,168.849,50.743,166.165,50.743z"/>
</g>
</svg>
